<mxfile host="app.diagrams.net" modified="2024-06-25T21:45:57.035Z" agent="Mozilla/5.0 (Windows NT 10.0; Win64; x64) AppleWebKit/537.36 (KHTML, like Gecko) Chrome/124.0.0.0 Safari/537.36" etag="gm3nkVy8d63vVUkeA4tf" version="24.6.3" type="github">
  <diagram name="Page-1" id="i7ZxxaO9vWtbetZTcvCp">
    <mxGraphModel dx="794" dy="446" grid="1" gridSize="10" guides="1" tooltips="1" connect="1" arrows="1" fold="1" page="1" pageScale="1" pageWidth="827" pageHeight="1169" math="0" shadow="0">
      <root>
        <mxCell id="0" />
        <mxCell id="1" parent="0" />
        <mxCell id="2tQ-3NKmMj03zkAYcns6-1" value="Performance of SMEs" style="rounded=1;whiteSpace=wrap;html=1;" vertex="1" parent="1">
          <mxGeometry x="560" y="180" width="120" height="60" as="geometry" />
        </mxCell>
        <mxCell id="2tQ-3NKmMj03zkAYcns6-2" value="Dependent variable" style="rounded=0;whiteSpace=wrap;html=1;" vertex="1" parent="1">
          <mxGeometry x="560" y="130" width="120" height="30" as="geometry" />
        </mxCell>
        <mxCell id="2tQ-3NKmMj03zkAYcns6-3" value="" style="rounded=1;whiteSpace=wrap;html=1;" vertex="1" parent="1">
          <mxGeometry x="320" y="180" width="120" height="60" as="geometry" />
        </mxCell>
        <mxCell id="2tQ-3NKmMj03zkAYcns6-4" value="Mediating variable" style="rounded=0;whiteSpace=wrap;html=1;" vertex="1" parent="1">
          <mxGeometry x="320" y="130" width="120" height="30" as="geometry" />
        </mxCell>
        <mxCell id="2tQ-3NKmMj03zkAYcns6-5" value="Digital Marketing" style="rounded=1;whiteSpace=wrap;html=1;" vertex="1" parent="1">
          <mxGeometry x="80" y="180" width="120" height="60" as="geometry" />
        </mxCell>
        <mxCell id="2tQ-3NKmMj03zkAYcns6-6" value="Independent variables" style="rounded=0;whiteSpace=wrap;html=1;" vertex="1" parent="1">
          <mxGeometry x="80" y="130" width="120" height="30" as="geometry" />
        </mxCell>
      </root>
    </mxGraphModel>
  </diagram>
</mxfile>
